<svg width="96" height="96" viewBox="0 0 96 96" fill="none" xmlns="http://www.w3.org/2000/svg">
  <rect width="96" height="96" rx="28" fill="#0F3934"/>
  <path d="M48 20C55.28 20 61.2 25.92 61.2 33.2C61.2 40.48 55.28 46.4 48 46.4C40.72 46.4 34.8 40.48 34.8 33.2C34.8 25.92 40.72 20 48 20Z" fill="#57C7AD"/>
  <path d="M26.8 34.8C34.08 34.8 40 40.72 40 48C40 55.28 34.08 61.2 26.8 61.2C19.52 61.2 13.6 55.28 13.6 48C13.6 40.72 19.52 34.8 26.8 34.8Z" fill="#CFEFE6"/>
  <path d="M69.2 34.8C76.48 34.8 82.4 40.72 82.4 48C82.4 55.28 76.48 61.2 69.2 61.2C61.92 61.2 56 55.28 56 48C56 40.72 61.92 34.8 69.2 34.8Z" fill="#CFEFE6"/>
  <path d="M48 49.6C55.28 49.6 61.2 55.52 61.2 62.8C61.2 70.08 55.28 76 48 76C40.72 76 34.8 70.08 34.8 62.8C34.8 55.52 40.72 49.6 48 49.6Z" fill="#57C7AD"/>
  <circle cx="48" cy="48" r="7.2" fill="#0F3934"/>
</svg>
